<svg width="350" height="394" viewBox="0 0 350 394" fill="none" xmlns="http://www.w3.org/2000/svg">
<path d="M175.047 0L0.546875 38.2948V217.041C0.546875 314.793 78.6558 394 175.047 394C271.438 394 349.547 314.79 349.547 217.041V38.3602L175.047 0Z" fill="#FFD703"/>
<path d="M349.545 156.091V137.766H210.953L242.607 14.8493L189.102 3.0874L1.34534 234.093C2.37164 244.983 4.37066 255.584 7.25328 265.807H129.056L100.409 377.047C117.857 385.429 136.897 390.963 156.944 393.057L349.545 156.091Z" fill="#0478FF"/>
<path d="M175.033 71.1771L63.5898 95.6358V209.8C63.5898 272.233 113.473 322.823 175.033 322.823C236.592 322.823 286.476 272.232 286.476 209.8V95.6775L175.033 71.1771Z" fill="black"/>
<path d="M282.994 237.949C285.267 228.95 286.476 219.519 286.476 209.8V137.769H210.937L225.242 82.2156L175.033 71.1772L124.791 82.2039L63.5898 157.509V209.8C63.5898 230.181 68.9059 249.301 78.2087 265.809H129.047L118.397 307.166C134.993 317.114 154.354 322.823 175.033 322.823C192.163 322.823 208.39 318.905 222.889 311.905L282.994 237.949Z" fill="white" fill-opacity="0.11"/>
<path d="M111.176 246.99H135.625V137.431H111.176V246.99Z" fill="white"/>
<path d="M250.191 137.431H152.966V159.919H189.354V246.99H213.803V159.919H250.191V137.431Z" fill="white"/>
</svg>
